<svg xmlns="http://www.w3.org/2000/svg" viewBox="0 0 312.26 298.6"><defs><style>.cls-1{fill:#fff;}</style></defs><title>Sampled</title><g id="图层_2" data-name="图层 2"><g id="图层_1-2" data-name="图层 1"><g id="图层_2-2" data-name="图层 2"><g id="图层_1-2-2" data-name="图层 1-2"><path class="cls-1" d="M131.33,61.43c4.64,5.9,25,45.55,24.23,45.58C181.35,64.47,118.78,3.16,68.72.14-9-4.56-11.41,112.07,20,159c28.14,42,45.92,19,84.58,19-4.06-11,32.84-14.41,31.26-25.87-.56-4.49-50.92-4.91-61.06-14.35C62,126,58,101.83,61.18,86.28,70.36,41.55,99.79,42.36,131.33,61.43ZM304.41,207.52c-15.55-19.18-34-41-57.83-49.78-12.85-4.73-18.13-6.92-31.31-2.32-4.76,1.66-29.32,16.67-26.23,21.44,4,6.17,16.92-58.16,16.59-54.8,2-19.64,7.34-37.56,27.36-47.88,44-22.66,7.41,26.11,6,41.92,16-3,49.65-39.74,57.11-52,19.22-31.55-2-30.37-18.46-49.54,2.77-1.4,8.16.91,10.78,1.6,2.3-16.33-51.13,8.4-55.62,12.12-13.74,11.38-30,33.55-35,51.06-6.78,23.92,4.92,60.85-9.15,86.5-3.64,6.64-15.34,22-24.64,18.15-15.64-6.44-3.76-21.25-3.35-31.68-6-1.11-12.05,13.35-11.95,17.81-16.55,0,1.6,28.58,18,29.09,17.86.56,26.65-16.12,41.77-20.61,13.86-4.12,23.91-2,32.53,11.18,6.15,9.41,2.09,28.34,6.69,30.76C238.64,225.42,221.41,230,212,227c-5.59-1.75-21.64-19.34-20.55-19.52-23.58,3.85,21.52,33.77,28.65,35.5C240.68,248,340,254.27,304.41,207.52ZM33.91,298c35.39,6.5,81.1-39,104.58-62.52,36.67-36.72.78-38-31.23-28.1-5.43,1.69-57,27.08-51.38,29.64,22.72,17.07,45.84-28.83,68-21.8,20.9,6.63-51,30-51.08,39.82-.26,4.48,7.78,2.81,9.9,3,1.93,8.6-31.26,16.31-35.92,18.82C29.3,286.26,33.49,283.06,33.91,298Zm18.58-57.51Z"/><path d="M131.33,61.43c-16.27-9.73-25.83-23.22-45.89-12.69C73.38,55.07,63.85,73.42,61.17,86.39c-3.15,15.26.37,37.43,12.14,49.55,10.28,10.59,61.91,12.89,62.44,16.42,1.51,11.51-35.3,14.92-31.26,25.87-32.52,0-47,22.24-74.94-7.29C5,145-3.77,100.85,1.45,65.87,11.82-3.59,81.17-16.18,128.92,27.79c25.46,23.44,41.76,53.7,26.65,79.27C156.6,107,135.78,67.21,131.33,61.43Z"/><path d="M304.41,207.52c36.38,46.53-64.43,40.39-84.25,35.59-5.91-1.43-52.66-27.92-29.95-35.72,0,0,15.62,17.78,21.85,19.74,9.35,2.94,26.79-1.68,35.74-6.44-4.61-2.43-.52-21.35-6.69-30.76-8.61-13.12-18.68-15.25-32.53-11.12-15.24,4.54-23.76,21.17-41.77,20.61-16.74-.52-34.21-29.35-18.1-29.08-.09-4.18,5.82-18.93,11.95-17.81,0,10-12.81,25.53,3.23,31.23,9.43,3.35,19-9.1,23.38-16.2,15.82-25.81,3.65-63.65,10.55-88.32,4.78-17.07,20.88-39.31,34.12-50.65,4.73-4,58.86-28.87,56.58-12.66-2.94-.79-7.74-2.92-10.72-1.41,16.5,19.17,37.49,17.85,18.46,49.54C288.9,76.32,255,113.14,239,116.12c1.39-15.66,37.95-64.6-6.12-42-20,10.26-25.43,28.35-27.38,47.94,0,.15-3.89,58.77-16.38,55-.51-.16,20.87-19.63,25.65-21.36,13.42-4.86,18.51-2.77,31.69,2.08C270.34,166.5,288.77,188.39,304.41,207.52ZM186.41,179C184.9,179,184.6,182.25,186.41,179Zm-4.16,4.4Z"/><path d="M33.91,298c-.48-14.91-4.74-11.61,12.86-21.12,4.66-2.52,37.83-10.32,35.9-18.82-2.1-.2-10.16,1.49-9.88-3,0-9.83,72-33.3,51.14-39.9-22.16-7-45.31,38.87-68.06,21.77.64,0,16-15.08,19.54-17.28,9.95-6.14,20.91-8.88,31.85-12.36,31.53-10.05,67.75-8.63,31.23,28.1C114.23,259.75,70.15,303.17,33.91,298Z"/><path class="cls-1" d="M186.37,179C190.63,183.14,179.59,179.19,186.37,179Z"/><path class="cls-1" d="M182.21,183.4C181.83,182.94,184.92,178.36,182.21,183.4Z"/></g></g></g></g></svg>