<svg xmlns="http://www.w3.org/2000/svg" viewBox="0 0 311.93 298.77"><defs><style>.cls-1{fill:#fff;}</style></defs><title>资源 1</title><g id="图层_2" data-name="图层 2"><g id="图层_1-2" data-name="图层 1"><path class="cls-1" d="M130.53,61.28c.48.61.92,1.16,1.35,1.72s.69,1.31,1.23,1.61c.9.5.66,1.48,1.17,2,.77.87,1.91,1.46,1.77,2.89,0,.1.19.21.27.33a10.08,10.08,0,0,1,.62,1c.12.24.09.63.27.76a4.45,4.45,0,0,1,1.85,3.29,1.35,1.35,0,0,0,.37.84,3.56,3.56,0,0,1,1.63,3.08c0,.3.34.63.53.94a12.82,12.82,0,0,1,1.29,2.07c.29.75-.17,1.8,1,2.17.36,1.9,2.33,1.93,3.47,2.92s2.27,1.75,2.64,3.26a4.09,4.09,0,0,0,.35.83c.22.43.62.84.65,1.28.18,2.45,0,4.91.8,7.31.29.89-.08,2.18.44,2.78a4.18,4.18,0,0,1,.79,3c.06,1.48.15,1.57,1.74,1.5.4-.66.78-1.35,1.22-2,.22-.32.54-.78.84-.8s.81.38,1.24.47c.59.13,1.41.43,1.77.16A2.77,2.77,0,0,0,161,102c-.06-.53.35-1.1.5-1.53L160.81,99l2.08-.24c0-3,0-5.86,0-8.76a9.57,9.57,0,0,1,.33-2.09c.1-.42.49-.81.51-1.22a11.13,11.13,0,0,0-1.58-7.25c-.62-.91-.43-2.23-1.16-3.33a4.85,4.85,0,0,1-1.15-3.8c0-.08-.13-.18-.18-.28-.61-1.27-1.23-2.53-1.82-3.82-.13-.28,0-.67-.2-.93A26.52,26.52,0,0,1,156,64.52c-.39-1,0-2.11-1.05-3-.59-.51-.63-1.64-1.2-2.21a6.51,6.51,0,0,1-2.06-3,4.66,4.66,0,0,0-1.06-2.08,4.88,4.88,0,0,1-1.83-2.91,3.08,3.08,0,0,0-1.12-2.12c-1.48-.83-1.7-2.51-2.79-3.56a2.86,2.86,0,0,1-.9-1.45c-.16-1.06-1.06-1.51-1.57-2.27A19.89,19.89,0,0,0,141,40.27c-.61-.74-1.2-1.49-1.82-2.21-.79-.91-1.57-1.82-2.41-2.67s-1.73-1.57-2.58-2.38-1.59-1.59-2.38-2.4A18.22,18.22,0,0,0,130.26,29c-.67-.53-1.48-.87-2.14-1.41-1.21-1-2-2.46-3.82-2.62-.13,0-.25-.25-.36-.39A14.94,14.94,0,0,0,122.61,23c-.85-.78-1.87-1.4-2.66-2.23-1.06-1.12-1.94-2.4-3.47-3a5.82,5.82,0,0,1-1.53-1.13c-.77-.68-1.23-1.78-2.49-1.77a.6.6,0,0,1-.32-.13c-1.2-.87-2.29-2.08-3.63-2.53-1.14-.38-1.92-1.65-3.31-1.34-.06,0-.14-.07-.21-.09-.83-.26-1.66-.54-2.5-.77-.48-.14-1.17-.05-1.44-.35C100.2,8.73,99.38,7.89,98,8a1.31,1.31,0,0,1-.86-.31c-.95-.86-1.85-1.78-3.27-1.74a1.18,1.18,0,0,1-.68-.17A8.24,8.24,0,0,0,88.26,4a12.61,12.61,0,0,1-1.67-.13,3,3,0,0,1-.72-.31A5.73,5.73,0,0,0,84.57,3c-.78-.13-2,.16-2.3-.25-.7-1.07-1.69-.55-2.47-.88A8.15,8.15,0,0,0,76.13,1S76,1,76,.93C75.52-.26,74.42,0,73.53,0c-7.48,0-15-.08-22.44,0a21.87,21.87,0,0,0-4.75,1.12c-.1,0-.16.17-.26.23a12.48,12.48,0,0,1-2.62,1.5c-1,.3-2.05.07-3.07.9s-2.34.83-3.53,1.25c-.9.32-1.77.7-2.65,1.07-.09,0-.13.18-.21.26a21.25,21.25,0,0,1-1.64,1.52c-.68.52-1.69.79-2.09,1.45a9.36,9.36,0,0,1-2.22,3,7.17,7.17,0,0,0-1,1c-.81.92-1.62,1.84-2.38,2.79A6.74,6.74,0,0,0,23,18.47c-.33,1.5-1.57,2.27-2.29,3.43A28.49,28.49,0,0,1,18,25.24c-.32.38-.93.76-.92,1.13.05,1.73-1.47,2.43-2.31,3.47a10,10,0,0,0-1.95,2.46,7.72,7.72,0,0,1-1.12,2.2c-1,1.12-1.91,2.2-1.77,3.82a.71.71,0,0,1-.21.52,4.54,4.54,0,0,0-1.83,3.11,2.94,2.94,0,0,1-.49,1A20.87,20.87,0,0,0,6,45.52c-.48,1.29-.78,2.64-1.16,4,0,.11-.07.29-.15.31-.92.29-.68,1-.69,1.68,0,1.2,0,2.4,0,3.6,0,.28,0,.74-.11.8-1.21.55-.69,1.64-.84,2.51a5.53,5.53,0,0,1-.3,1.49c-.46.92-1.32,1.73-1.51,2.68-.42,2.11,0,4.37-1.13,6.36,0,6-.12,11.92-.08,17.88,0,2.72,1.27,5.3,1,8.08a19.38,19.38,0,0,0,.09,2.88,4.29,4.29,0,0,0,.16.94A10.22,10.22,0,0,1,1.93,101c.1,2.92.07,5.84.11,8.76,0,.38,0,1,.22,1.1.94.31.66,1.09.75,1.7s-.2,1.73.18,2.1c1.05,1,.66,2.2.82,3.33,0,.27,0,.61.15.8,1.08,1.39,1.09,2,.05,3.31a1.69,1.69,0,0,0-.18.66c-.18.74.59,1,.75,1.5.37,1.06.3,2.19,1,3.27.53.8.5,2,.91,3.05.74,1.86.85,4,1.32,5.93.27,1.13.74,2.22,1.13,3.32a.15.15,0,0,0,.08.09c.93.27.63,1.07.72,1.7s-.07,1.75.26,1.93c1.25.67.72,2.07,1.51,3a29.05,29.05,0,0,1,2,3.75c.42.74.91,1.44,1.26,2.2a19.85,19.85,0,0,0,1.25,3,21.89,21.89,0,0,0,3,3.38c1.37,1.28,2.9,2.33,3.94,4,.69,1.13,1.27,2.31,1.95,3.43a10.81,10.81,0,0,0,1.26,1.66c.83.91,1.71,1.76,2.55,2.65.36.38,1,.84.93,1.22-.14,1.6.83,2.41,2,3.15.66.43,1.43.72,2.05,1.2s1.3,1.25,2,1.86q2.12,1.91,4.28,3.79c.45.39.94,1,1.41,1,1.34,0,2,1.18,3.11,1.57.59.21,1,.93,1.55,1.32a8.89,8.89,0,0,0,2.16,1.21c1.38.46,2.83.76,4.24,1.14.14,0,.24.2.38.26a3.49,3.49,0,0,0,1.22.5c2.84,0,5.68,0,8.52,0,.31,0,.78,0,.92-.13.72-.91,1.73-.63,2.64-.78a8.57,8.57,0,0,0,1.41-.24c1.65-.56,3.28-1.21,4.94-1.72,1.32-.41,2.43-1.54,4-1.2a.23.23,0,0,0,.2-.11c.25-1,1.06-.66,1.68-.73s1.29,0,1.92-.06c2.08-.31,4.15-.68,6.22-1,.1,0,.19-.13.29-.18A5.9,5.9,0,0,1,88.4,182c1.18-.17,2.4-.11,3.58-.3.95-.16,2.17-.28,2.71-.9a3.57,3.57,0,0,1,2.39-1c.19,0,.45-.06.55-.19A4.84,4.84,0,0,1,102,177.9c.59,0,1.17,0,1.8,0v-1.47a9.32,9.32,0,0,0-2.11-1.24c-.84-.21-.79-.64-.77-1.29,0-.83.57-.94,1.16-1.07a2.09,2.09,0,0,0,.66-.23,11.48,11.48,0,0,1,2.52-1.58c1.14-.34,2.38-.05,3.47-1a6.72,6.72,0,0,1,2.78-1c1.34-.3,2.73-.15,4-1.12a11.37,11.37,0,0,1,3.23-1.19.79.79,0,0,0,.18-.14l2.29-1.73a7.24,7.24,0,0,1,1.19-.92c1-.48,2.09-.86,3.14-1.29.13-.05.2-.25.32-.32a12.36,12.36,0,0,1,2.86-1.5c1.32-.32,1.44-.27,1.18-1.78-1.85-.31-2.35-1-2-3a2.27,2.27,0,0,1,.18-.69c.1-.19.28-.42.46-.46,1.65-.38,3.31-.8,5-1,1.42-.2,1.72-.4,1.52-1.85-.05-.4-.41-.76-.62-1.14s-.36-.55-.34-.82c.07-1-.42-1.16-1.3-1.2-6.06-.28-12.17.61-18.18-.83a20.38,20.38,0,0,0-3.23-.16,4.15,4.15,0,0,1-1.12-.32,5.2,5.2,0,0,0-1.5-.6c-4.24-.07-8.48,0-12.72-.11a18.85,18.85,0,0,1-2.83-.5,1.85,1.85,0,0,1-2.19.31,4.61,4.61,0,0,0-1.9-.64c-2,.24-3.61-1.17-5.5-1.3a1,1,0,0,1-.33-.14l-3.53-1.72a2.86,2.86,0,0,1-.74-.46c-.81-.79-1.58-1.62-2.4-2.4A33.85,33.85,0,0,1,74,137.68a16.46,16.46,0,0,1-2.86-4,18.1,18.1,0,0,0-2-3.19c-.86-1.27-1.35-2.8-2.22-4.06-.51-.73-.74-1.77-1.27-2.17-.76-.58-.56-1.18-.73-1.81-.3-1.13-.7-2.25-1.06-3.37,0,0,0-.08-.07-.09-1-.25-.75-1.07-.85-1.74a2.39,2.39,0,0,0-.23-1,17.58,17.58,0,0,1-2-4.35,18.72,18.72,0,0,1-.86-4.17c0-.18-.2-.33-.28-.51A3.43,3.43,0,0,1,59,106c0-4.24,0-8.48,0-12.72a3.82,3.82,0,0,1,.26-1.14,9.56,9.56,0,0,0,.6-1.68c.11-.91,0-1.84.09-2.75a7.09,7.09,0,0,1,.43-1.58c.14-.42.39-.81.51-1.24.44-1.51.82-3,1.28-4.53a16.8,16.8,0,0,1,.82-2,2.91,2.91,0,0,1,.38-.54,4.73,4.73,0,0,0,.58-.74c.45-.93.82-1.9,1.29-2.82s1.18-1.93,1.62-3,.81-2.37,1.21-3.56c.05-.15.08-.34.18-.44A4.35,4.35,0,0,0,70,63.49c0-.17.29-.36.45-.55.46-.54,1.27-1.06,1.31-1.63.14-1.72,1.72-2.26,2.47-3.45C74.74,57,76,56.76,76,55.53c0-.15.18-.32.31-.44q1.31-1.23,2.64-2.44c1.12-1,1.91-2.41,3.57-2.84a4.62,4.62,0,0,0,2.06-1.27,4.33,4.33,0,0,1,3.32-1.73,1.56,1.56,0,0,0,.82-.39c1-.74,1.89-1.63,3.3-1.51.57,0,1.52,0,1.68-.26.44-.83,1.11-.69,1.73-.7A43.57,43.57,0,0,1,101,44a50.56,50.56,0,0,1,5.4,1.12.55.55,0,0,1,.31.17A3.91,3.91,0,0,0,110.17,47a1.06,1.06,0,0,1,.56.16c1,.61,2,1.26,3,1.86.69.4,1.7.55,2.1,1.13,1,1.42,2.65,1.75,3.83,2.8.3.27.5.72.84.86a8.26,8.26,0,0,1,3.56,2.86,6.32,6.32,0,0,0,1.29,1.21c.82.63,1.66,1.24,2.52,1.81S129.67,60.76,130.53,61.28ZM303.61,207.37l.14-.21c-.27-.13-.61-.2-.79-.41a13.91,13.91,0,0,0-1.38-1.84c-1.41-1.19-2-3-3.59-4.12a18.24,18.24,0,0,1-2.57-2.68l-2.64-2.81c-.39-.41-.77-.82-1.2-1.19-.64-.57-1.34-1.07-2-1.65-1.22-1.14-2.41-2.32-3.6-3.5-.73-.72-1.47-1.44-2.16-2.21s-1.46-1.82-2.26-2.65-1.75-1.6-2.62-2.4c-.37-.34-1-.69-1-1.08a4.28,4.28,0,0,0-1-2.24c-.54-.67-.82-1.56-1.39-2.2-.77-.86-1.76-1.53-2.57-2.35a27.37,27.37,0,0,0-2.4-2.67c-1.69-1.31-3.59-2.35-5-4a4.49,4.49,0,0,0-1.62-1c-.94-.43-1.91-.78-2.86-1.17a.34.34,0,0,1-.16-.15c-.75-1.54-2.49-1.75-3.73-2.57-.83-.55-1.7-1.67-3-1.33a.23.23,0,0,1-.2-.1c-.3-.93-1.1-.72-1.78-.8-.31,0-.76,0-.91-.24-1-1.36-2.87-.29-4-1.66-.59-.72-2-.75-3.08-1.1a1.13,1.13,0,0,1-.27-.2,12.53,12.53,0,0,0-2.43-1.75,31.26,31.26,0,0,0-4-1.11c-.15,0-.41,0-.44-.13-.4-1.06-1.31-.69-2-.73-1-.06-2.08,0-3.12-.07-.31,0-.82,0-.91-.13-.57-1.05-1.58-.69-2.43-.87a10.28,10.28,0,0,1-1.61-.63,2.32,2.32,0,0,0-.84-.28c-2.31.1-4.74-.71-6.86.93-.64.5-1.42.81-2.1,1.26s-1.59,1.14-2.39,1.71a6.08,6.08,0,0,0-.75.47c-.67.64-1.14,1.54-2.22,1.64a.89.89,0,0,0-.55.19c-.79.9-1.49,1.91-2.92,1.79-.12,0-.27.23-.39.37a2.1,2.1,0,0,1-3.36-.54c-.56.11-1.4,0-1.71.37-1.37,1.61-2.58,3.35-3.87,5-.3.4-.89.73-.94,1.14-.19,1.56-1.49,2.48-2.37,3.38-1.47,1.5-2.7,3.15-4,4.77-.21.26-.52.45-.75.7-.76.83-1.49,1.68-2.25,2.51a.38.38,0,0,1-.57-.43,9.46,9.46,0,0,1,1.13-2.17c.7-.82,1.58-1.49,1.72-2.67a1,1,0,0,1,.31-.46l3.54-3.77c.6-.64.86-1.8,1.3-2.12,1.42-1.05,1.61-2.79,2.72-3.95a7.9,7.9,0,0,0,1.73-2.28c.42-1,1.5-1.67,1.39-3-.13-1.61,1.32-3,1-4.72,0-.08.23-.19.3-.32.21-.38.56-.77.57-1.16.1-5.44.16-10.87.22-16.31,0-2.52,0-5,.11-7.55.07-1.36.65-2.71.59-4-.17-3.58.72-7.22-.63-10.74-.32-.84.22-1.67.59-2.53a39.7,39.7,0,0,0,1.09-4.39,7.72,7.72,0,0,1,1.4-3.08,2.42,2.42,0,0,0,.73-1.69c0-.14.09-.38.17-.4,1.26-.31.54-1.93,1.66-2.5.31-.16.33-1.41,1-2.06a30.11,30.11,0,0,0,2-2.71c1.31-1.61,2.52-3.27,4.73-4,.65-.2,1.28-.91,2.16-.92.06,0,.12-.09.17-.15,1.07-1.24,2.07-2.55,3.22-3.72,1.49-1.51,3.13-2.86,4.64-4.35s2.94-3.1,4.43-4.64c.34-.36.72-.9,1.12-.94,1.34-.13,2-1,2.79-1.93A4.56,4.56,0,0,1,237.61,70c1-.44,2-.78,3-1.16a.36.36,0,0,0,.16-.16c.64-1.16,2-1.09,3-1.67.44-.26,1-.4,1.37-.69.63-.46,2.87-.62,3.46-.06,1.43,1.34,3.3,2,4.68,3.52.79.87.71,2.09,1.66,2.73-.44,2.06-.87,4.12-1.34,6.17-.16.7-.43,1.38-.68,2.19a8.22,8.22,0,0,1,1.06.07c.35.08.69.22,1,.33a6.49,6.49,0,0,1-.6.86c-.71.75-1.48,1.37-1.39,2.64a11.15,11.15,0,0,1-.48,3c-.09.43-.42.82-.5,1.25-.16.84.27,1.85-.87,2.36-.15.07-.1.52-.19.78-.38,1.15-.77,2.29-1.17,3.43,0,.07-.12.1-.17.16a8.13,8.13,0,0,0-1.45,1.76,5.11,5.11,0,0,1-2,2.61,4.66,4.66,0,0,0-1.17,1.25c-.62.81-1.19,1.65-1.77,2.5a16.28,16.28,0,0,0-1.2,1.88c-.35.71-.54,1.51-.88,2.23s-.75,1.1-1,1.69c-.48,1-.63,2.26-1.37,2.9-1.2,1.05-.48,2.16-.59,3.39a9.18,9.18,0,0,0,2.12-.67,5.24,5.24,0,0,0,2-1.38,6.9,6.9,0,0,1,2.22-1.36,34.59,34.59,0,0,0,3.55-2.56c1-.66,2.23-1,3-2a5.62,5.62,0,0,1,1.52-1.05c.7-.45,1.43-.84,2.1-1.32a7.17,7.17,0,0,0,1.16-1.08c.45-.5.81-1.08,1.27-1.56.85-.87,1.77-1.68,2.64-2.54s1.63-1.68,2.43-2.53,1.77-1.85,2.58-2.84a24.81,24.81,0,0,1,2.3-3c.93-.83,1.78-1.56,1.82-2.88,0-.09.11-.19.19-.27.9-.93,1.83-1.84,2.7-2.81.53-.6.9-1.34,1.44-1.93.79-.86,1.71-1.6,2.49-2.47,1.13-1.26,1.6-3,3.09-4,1-.71,1-2.16,1.93-3.1.71-.74,1.23-1.52,2.33-1.69.26,0,.47-.37.73-.49a25.73,25.73,0,0,1,2.5-1.09c.21-.07.55.34.82.32a4.12,4.12,0,0,0,1.65-.39,7.85,7.85,0,0,0,1.5-1.29q1.76-1.71,3.49-3.45c.07-.07,0-.25.07-.34.48-.74,1-1.49,1.47-2.21s1.11-1.49,1.62-2.26,1.28-1.49,1.06-2.6c0-.06.18-.14.24-.23.24-.35.47-.71.69-1.08s.24-.53.38-.77a7.83,7.83,0,0,0,.55-.86,12.44,12.44,0,0,1,1.26-3.06c1-1.3.94-3,1.72-4.34.65-1.15-.39-2.09-1.28-2.76-.62-.46-.67-.69,0-1,.13-.06.3-.21.3-.32,0-1.43.38-3.15-.26-4.22a7.89,7.89,0,0,1-.74-3.07,6.36,6.36,0,0,0-.43-2.06,2.36,2.36,0,0,1,.06-3.1c.16.17.3.45.49.49a5.69,5.69,0,0,0,1.73.19,1.92,1.92,0,0,0,.16-1.24,5.66,5.66,0,0,0-1-1.72c-1.05-1.29-2.11-2.59-3.28-3.78-.84-.85-1.87-1.52-2.8-2.29a7.91,7.91,0,0,0-3.55-1.86,17.84,17.84,0,0,1-3-1.15c-.07,0-.11-.11-.16-.17-.77-.75-1.49-1.58-2.7-1.61a.71.71,0,0,1-.51-.21c-.79-1.16-2.23-1.17-3.32-1.74-1.58-.82-3.56-.81-5-2a9.32,9.32,0,0,1-.69-.72,4.69,4.69,0,0,1,1-.37,7.73,7.73,0,0,1,1.44,0c.47,0,1.26,0,1.36.18.46,1.06,1.34.64,2.07.74s1.61-.11,1.84.23c.89,1.31,2.05.55,3.07.82.21-1.49,0-2.11-1.19-2.74A31.43,31.43,0,0,0,283.47,12c-.21-.08-.4-.22-.61-.32a3.7,3.7,0,0,0-1.31-.58c-3.8-.06-7.6-.05-11.4,0a3.3,3.3,0,0,0-1.13.3c-.55.22-1.08.52-1.64.71-.33.12-.77,0-1.05.17a11.46,11.46,0,0,1-4,1.88c-.07,0-.19,0-.21.1-.33,1.11-1.27.69-2,.79s-1.43.07-2.11.23-1.23.6-1.87.69c-1,.14-2.07.08-3.11.13-.31,0-.81,0-.9.19-.49.91-1.36.6-2.09.78-1.37.34-2.71.78-4.06,1.18,0,0-.05.06-.08.08L242,20c-.93.41-1.85.84-2.78,1.27-.06,0-.08.14-.14.19-1,.87-2.14,1.66-3.1,2.6-1.2,1.17-3.14,1.74-3.16,3.65-.67.34-1.6.55-1.66.9-.17,1-.55,1.5-1.56,1.53a.64.64,0,0,0-.41.2c-.8.88-1.55,1.8-2.37,2.67s-1.86,1.85-2.76,2.81c-.67.72-1.28,1.5-1.94,2.24s-1.65,1.36-1.94,2.21A9.28,9.28,0,0,1,218,43.34c-.86,1-1,2.48-2.09,3.32a8.81,8.81,0,0,0-2.07,3.13,2.26,2.26,0,0,1-.86.78c-.86.5-.9,1.42-1.27,2.19a26.37,26.37,0,0,1-1.93,3.44,5.53,5.53,0,0,0-1.07,2.41,2,2,0,0,1-.92,1.3c-1.49.85-1.82,2.6-3,3.64-.72.65-.71,1.51-1.16,2.15-.65.94-1.74,1.58-1.77,2.91,0,.12-.26.23-.37.37a4.89,4.89,0,0,0-.53.75c-.16.31-.26.66-.41,1-.52,1.14-1.11,2.25-1.57,3.41s-.83,2.46-1.26,3.68c0,.12-.3.16-.36.28a2.29,2.29,0,0,0-.36,1.12,1.06,1.06,0,0,0,.79.65c1.08,0,1.32.67,1.11,1.5-.43,1.71,1.15,2.87,1.13,4.45,0,.08.17.15.25.23a3.41,3.41,0,0,1,.26,3.55,12.21,12.21,0,0,0-.66,1.43c-.18.37-.43.7-.58,1.07a37.09,37.09,0,0,0-1.37,3.6,11.18,11.18,0,0,0-.15,2.27c0,.27,0,.74-.16.78-1.22.36-.68,1.34-.77,2.08s.07,1.79-.23,1.91c-1.15.49-.92,1.43-.73,2.11.58,2.14-1.5,3.69-1.13,5.75,0,.08-.23.19-.31.32a2.38,2.38,0,0,0-.51.91c-.1,1.15-.14,2.32-.14,3.47,0,8.56.07,17.12-.07,25.68-.05,3.28.51,6.55-.59,9.87-.62,1.86-.92,3.73-2.08,5.45-.6.9-.38,2.32-1,3.48s-.61,2.77-1.28,3.94c-.39.68-.51,1.73-.93,2-1.48.85-1.61,2.6-2.8,3.64a19.54,19.54,0,0,0-3,3.82,11.67,11.67,0,0,1-2.86,2.94A8.34,8.34,0,0,0,178,177.4c-.47.53-.91,1.09-1.42,1.58-.85.83-1.74,1.62-2.62,2.43-.7.65-1.18,1.61-2.32,1.65-.18,0-.49.12-.5.22-.13.82-.78.65-1.3.74-.27,0-.68,0-.78.21a1.7,1.7,0,0,1-2,.64c-1.3-.24-2.57-.66-3.85-1-.12,0-.19-.25-.31-.34-.64-.49-1.28-1-1.94-1.44a17.69,17.69,0,0,1-2.19-1.56c-.76-.74-1.32-1.67-2-2.49a6.44,6.44,0,0,1-1.92-4.93c.14-1.51-.1-3.05.09-4.55a33.58,33.58,0,0,1,1.08-4.31c0-.1.17-.15.24-.25a3.69,3.69,0,0,0,.6-1,29.62,29.62,0,0,1,1.23-5.23,11,11,0,0,0,1-3.08.45.45,0,0,1,.17-.31c1-.55.57-1.42.6-2.19-1.52-.28-2.06.15-2.87,1.23a39,39,0,0,1-3.36,3.58s-.15,0-.23,0c-1.64.36-2.16.94-2.39,2.6a2.66,2.66,0,0,1-.33,1.13,7.12,7.12,0,0,0-1.73,4.75,3.61,3.61,0,0,1-.32,1.44,11,11,0,0,0-.61,1.21,11.55,11.55,0,0,0-.11,1.87c-1.21,0-1.61-.83-2.07-1.62a1,1,0,0,0-.76-.48c-.38,0-1,.26-1,.52-.21.74-.66,1.43-.84,2a33.46,33.46,0,0,0-1.09,4.31A58.88,58.88,0,0,0,142,183c0,.27,0,.72.15.77,1,.42.68,1.32.81,2.06a3.11,3.11,0,0,0,.28,1.1,12.19,12.19,0,0,1,1.61,2.44,7.87,7.87,0,0,0,2.81,3.65,15.16,15.16,0,0,1,1.24,1.2c.47.51.91,1.06,1.36,1.6a10.66,10.66,0,0,1,1.62,2,3,3,0,0,0,2.82,2c3.76-.08,7.51-.41,11.26-.73,2.56-.22,4.84-1.47,7.39-1.4a.59.59,0,0,0,.33-.12,8.39,8.39,0,0,1,4.85-1.75,4,4,0,0,0,1.34-.29,12.44,12.44,0,0,1,1.36-.67c1.44-.33,2.67-1.36,4.22-1.33.1,0,.19-.24.32-.32.7-.47,1.4-.95,2.13-1.38,1-.61,2.24-.82,3.05-1.83a2.78,2.78,0,0,1,1.59-1.06c1.15-.12,1.57-1.09,2.31-1.64s1.43-1.72,2.29-2.36c1.91-1.43,3.89-2.77,5.92-4,1.39-.86,2.92-1.51,4.38-2.26a1.1,1.1,0,0,0,.29-.2c.73-.75,1.32-1.69,2.55-1.69a.56.56,0,0,0,.4-.2c.79-1.09,2.12-1.25,3.21-1.58,1.33-.4,2.86-.11,4.29-.26,2.2-.24,4.08.91,6.14,1.24a.56.56,0,0,1,.32.15A4.16,4.16,0,0,0,228,178c.26,0,.56.26.8.44a8.33,8.33,0,0,0,1.7,1.35,5.22,5.22,0,0,1,2.55,1.89,7.88,7.88,0,0,0,1.26,1.17c.92.85,1.85,1.7,2.74,2.57.46.45.84,1,1.3,1.43.7.66,1.64,1.12,1.72,2.25a1.08,1.08,0,0,0,.19.56c.89,1.16,1.8,2.3,2.68,3.46a9.79,9.79,0,0,0,1,1.44c.71.64.65,1.75,1.15,2.23a3.18,3.18,0,0,1,.8,2.6c0,1.32-.08,2.65.05,4,.09.9.55,1.76.73,2.65.11.52.21,1.33-.07,1.59-.86.79-.58,1.74-.72,2.65-.21,1.35.68,3-.93,4-.08.05,0,.32-.06.46q-.54,1.54-1.11,3.07c0,.08-.19.14-.3.17-.94.24-.52,1-.55,1.58,0,.12.74.35,1.15.4s1.12-.07,1.67,0a5.4,5.4,0,0,1,1.2.46c-1.88,1-3.32,1.91-5.35,1.68-1.17-.13-2.45.68-3.67,1.08-.05,0-.05.15-.1.21-.79,1-1.67,1.86-3.12,1.65-.26,0-.72,0-.79.12-.57,1.15-1.65.85-2.54.86-4.2,0-8.39,0-12.59,0a5.57,5.57,0,0,0-1.7.37c-.5.17-1,.65-1.45.66a24.63,24.63,0,0,1-4.43-.19,3.84,3.84,0,0,1-2.31-1.16c-.77-1-2-1-2.85-1.62-.4-.3-1.07-.06-1.41-.8a2.48,2.48,0,0,0-1.47-1.09c-.95-.28-1.89-.27-2.67-1.16-1.08-1.23-2.47-2.17-3.64-3.33-.83-.82-1.47-1.83-2.27-2.69a5.74,5.74,0,0,1-1.85-4.15c0-1.09.51-2.24-.78-3.3-1-.79-1.79-.48-2.6-.44-.52,0-1.19.79-1.47,1.37a15.29,15.29,0,0,0-1.07,4.31c-.22,1.34-1.11,2.59-1.23,4,0,.19-.38.35-.46.42.26.57.48,1,.68,1.5.45,1.06.83,2.15,1.34,3.18s1.08,1.91,1.65,2.85a12.07,12.07,0,0,0,1.37,2c.83.89,1.84,1.61,2.69,2.47,1.13,1.14,2.17,2.38,3.29,3.53a9.17,9.17,0,0,0,1.37,1c.82.58,1.64,1.17,2.49,1.71s1.53,1.23,2.32,1.28c1.32.07,2,1.17,3.13,1.48s2.26,1.17,3.46,1.49c1.75.46,3.35,1.44,5.29,1.36a8.92,8.92,0,0,1,2.83.87c.15,0,.38.08.42.19.38.88,1.17.64,1.85.71s1.77-.07,2.17.35a2.39,2.39,0,0,0,1.79.64c.4,0,1-.06,1.16.16,1,1.06,2.29.7,3.47.73,2.6.07,5.2,0,7.8,0l46.43-.08a5.55,5.55,0,0,0,1.4-.19,17.63,17.63,0,0,1,1.94-.62c.87-.12,1.76,0,2.63-.11a2.73,2.73,0,0,0,.83-.32,4.84,4.84,0,0,1,1.2-.53c.83-.11,1.68,0,2.51-.13a4,4,0,0,0,1.07-.35A5.85,5.85,0,0,1,295,242c.87-.13,2.07.19,2.56-.27,1-.92,2-.6,3-.86a16.12,16.12,0,0,0,3.3-1.22,12.7,12.7,0,0,0,2.27-1.71c.91-.77,2.11-1,3-2,.56-.63.5-1.57,1-1.83.9-.5.71-1.2.8-1.9,0-.31,0-.8.21-.91,1.07-.6.67-1.6.71-2.45s.29-2.16-.16-2.55c-1-.87-.62-1.86-.8-2.81-.33-1.7-.68-3.39-1-5.08a.32.32,0,0,0-.11-.2c-1.16-.62-1.06-2-1.87-2.93a13,13,0,0,1-1.1-2.22c-.72-1.22-2-2.12-1.95-3.76,0-.07-.06-.14-.1-.2ZM33.11,297.82a3.73,3.73,0,0,0,.78.06c1.45-.22,3.12.66,4.32-.84,2.15,0,4.31,0,6.46,0,.11,0,.2.34.35.41,1,.47,2,.92,3,1.33a.59.59,0,0,0,.55-.15c.52-.86,1.37-.65,2.14-.72.36,0,.93,0,1-.13.48-.88,1.3-.68,2-.86a19.76,19.76,0,0,0,2-.9c1.2-.43,2.43-.78,3.63-1.18a2,2,0,0,0,.45-.33,3.52,3.52,0,0,1,.87-.6c1-.32,1.78-1.35,3-1.1.05,0,.16-.07.18-.13.66-1.65,2.57-1.62,3.68-2.7.59-.58,1.6-.7,2.32-1.18s1.4-1.36,2.22-1.83c1.38-.79,2.86-1.41,4.3-2.1a1.08,1.08,0,0,0,.31-.17c.84-.84,1.64-1.72,2.52-2.52a8.62,8.62,0,0,1,1.69-1.2c.83-.45,1.74-.77,2.57-1.23a9,9,0,0,0,1.34-1.1c1.08-.92,2.15-1.87,3.24-2.77.56-.46,1.21-.82,1.73-1.32.86-.81,1.63-1.72,2.47-2.54a4.5,4.5,0,0,1,1.38-1c.52-.21,1.05-.07,1.4-.82A3.39,3.39,0,0,1,96.69,269c1-.44,2-.74,2.95-1.12.12,0,.18-.23.28-.33.45-.49.85-1.31,1.38-1.39,2.19-.37,3-2.49,4.61-3.52a23.71,23.71,0,0,0,2.73-2.55c.66-.58,1.47-1,2.11-1.59.83-.78,1.55-1.68,2.35-2.5.37-.38.89-1,1.21-.95,1.25.27,1.47-1.1,2.4-1.31.46-.1.81-.68,1.21-1,.64-.57,1.26-1.16,1.92-1.7,1-.8,2-1.53,3-2.37a18.51,18.51,0,0,0,1.27-1.59c.35-.39.75-1,1.17-1a4,4,0,0,0,2.69-1.82c.4-.46.92-1,1.45-1.1,1.63-.2,2.16-1.76,3.36-2.49a16,16,0,0,0,2.87-2.83,18.54,18.54,0,0,0,1.19-1.43c.57-.74,1.06-1.55,1.7-2.22,1.12-1.18,2.38-2.23,3.49-3.42s1.91-2.71,3.17-3.65,1.54-2.69,2.74-3.7a15.42,15.42,0,0,0,1.39-1.52c.51-.58,1-1.15,1.54-1.73s1.15-1.39,1.75-2.06a18.78,18.78,0,0,0,2.21-2.49,17.6,17.6,0,0,0,1.18-3.13c0-.11.07-.28.15-.31.94-.38.84-1.24.77-1.94-.22-2.17.65-4.43-.88-6.54a5.27,5.27,0,0,0-1.49-1.8,3.94,3.94,0,0,0-2.32-.84c-2,0-4,0-6-.09a3.56,3.56,0,0,1-1-.25,5.33,5.33,0,0,0-1.47-.54c-6.16,0-12.32,0-18.48,0a4,4,0,0,0-1.14.24,8.26,8.26,0,0,1-1.57.55c-3.5.32-7.16-.57-10.52,1.55,0,.48-.58,1.37.72,1.65.07,0,.13.78,0,.85a26,26,0,0,1-2.4,1.1c-1.26.53-2.46,1.27-3.92,1.08-.09,0-.19.12-.29.18a5.39,5.39,0,0,1-1.29.7c-1.78.42-3.75.41-5.3,1.22a11.88,11.88,0,0,1-3.8.94c-.19,0-.5.06-.55.17-.38.88-1.17.65-1.85.74-1.4.19-2.54,1.36-4.07,1.06a.24.24,0,0,0-.19.13c-.52,1.26-2,.67-2.87,1.61-.68.77-2,.93-3,1.46s-1.64,1.23-2.54,1.67c-1.38.68-2.88,1-4.27,1.8-1.08.59-2.18,1.62-3.65,1.36a.63.63,0,0,0-.44.16c-1.09.93-2.12,2-3.76,1.83a.62.62,0,0,0-.46.29c-.84,1.5-2.57,1.66-3.88,2.38a17,17,0,0,0-2.41,1.77c-.33.26-.74.69-.75,1.05-.05,1.49.32,3-1,4.27-.47.48-.71,1.07-1.47,1.07-1,0-1.74.22-1.68,1.45a.87.87,0,0,1-.33.56c-.5.43-1,.8-1.53,1.24-.1.09-.11.48,0,.53a6.22,6.22,0,0,0,2,1c1.58.25,1.74.3,2,2a3,3,0,0,1,.83.36,4.37,4.37,0,0,0,5.08.11,1.18,1.18,0,0,1,.85,0c.1.71.45,1,1.15.83s1.4,0,1.71-.38a4.67,4.67,0,0,1,3.65-1.87c.19,0,.36-.33.57-.46A16.2,16.2,0,0,1,75.29,237a5.06,5.06,0,0,0,1.81-.81c1.26-1.05,3-1.53,4.53-2.27.43-.21.8-.52,1.22-.76.7-.41,1.39-.84,2.12-1.18.91-.43,1.87-.78,2.8-1.17.06,0,.06-.15.12-.19.33-.24.67-.48,1-.68s.73-.33,1.08-.53A25.26,25.26,0,0,1,92.38,228c1.05-.47,2.17-.77,3.26-1.15.07,0,.17-.08.18-.13.12-.86.83-.69,1.38-.8a2.38,2.38,0,0,0,.67-.18c1.11-.61,2.23-1.22,3.3-1.89a4.06,4.06,0,0,1,2.52-.95c.12,0,.23-.34.39-.4,1.23-.47,2-1.8,3.6-1.65.36,0,.78-.34,1.14-.58a7.68,7.68,0,0,1,1.71-1.18c1.24-.38,2.56,0,3.81-1,1-.81,2.64-.85,4-1.23.15,0,.29-.12.44-.18a25,25,0,0,1,4.32-1.64,20.56,20.56,0,0,1,4.66,0c.38,0,1,.38,1.07.63a9,9,0,0,1-.18,2.49c-.07.36-.44.66-.67,1a9,9,0,0,1-.66,1c-.73.81-1.5,1.57-2.24,2.37-1.14,1.22-2.27,2.44-3.39,3.68-.76.85-1.49,1.73-2.24,2.6-.31.33-1,.3-1.33.64-.69.81-1.21,1.74-2.44,1.77a.64.64,0,0,0-.4.23,6.64,6.64,0,0,1-4.66,2.78,1.77,1.77,0,0,0-.61.28c-.42.22-.82.59-1.25.63-1.27.1-2.57-.06-3.83.11-1.57.22-3.1.67-4.64,1-.07,0-.11.11-.18.15-.39.24-.76.49-1.16.7-.24.12-.7.13-.74.27-.27,1-1,.67-1.67.75-.43.06-1.06-.09-1.28.15-1.12,1.24-3,.43-4.17,1.76-.81.93-2.36,1.23-2.17,3.21l-4.2,1c-.12,0-.23.08-.34.12a19.73,19.73,0,0,1-2,.63c-.54.11-1.19-.11-1.66.11-.65.31-1.6.85-1.65,1.36a3.67,3.67,0,0,1-1,2.22A10.49,10.49,0,0,1,77,249.8a14.19,14.19,0,0,1-2.75,2.06,3.15,3.15,0,0,0-2.23,3c-.13,2.22.59,3,2.86,3l2.28,0h4.76c.27,1.2,0,1.92-1.21,2.1-.19,0-.48,0-.56.14a6.68,6.68,0,0,1-2.79,2.15c-.58.28-.94,1-1.48,1.42A19.41,19.41,0,0,1,74,265c-.68.43-1.38.83-2.07,1.25-.91.56-1.79,1.18-2.74,1.67s-2,.86-3,1.35-2.22,1.19-3.33,1.77a6.27,6.27,0,0,1-3.41,1.12c-.1,0-.23.19-.34.3-.5.46-.93,1.15-1.51,1.32-1.66.51-3.39.83-5.09,1.2-.73.16-1.5.17-2.23.35s-1.26.5-1.9.73c-.3.1-.77,0-.91.21-.8,1.05-2,.59-2.94.82s-2.23.7-3.34,1.07c0,0-.09,0-.09.07-.2,1-1,.65-1.63.74s-1.16,0-1.53.77c-.23.51-1.06.83-1.69,1.08-.88.34-2-.08-2.58,1.15s-2,1.14-2.91,1.83-.69,1.25-.66,2a7.11,7.11,0,0,1,.81.06c.37.07,1,.13,1,.29a1.68,1.68,0,0,1-.21,1.33c-1.12,1-2.34,1.86-3.67,2.89l.09,1.37c1.8.17,1.75.18,1.94,1.85a1.73,1.73,0,0,0,.8,1.23A3.25,3.25,0,0,1,33.11,297.82Zm18.58-57.51,2.14-1.77c-.18-.2-.48-.59-.52-.56-.74.47-1.46,1-2.16,1.51C51.14,239.5,51.41,239.88,51.69,240.31Z"/><path d="M130.53,61.28c-.87-.52-1.78-1-2.66-1.62s-1.7-1.18-2.52-1.81a6.32,6.32,0,0,1-1.29-1.21,8.26,8.26,0,0,0-3.56-2.86c-.34-.14-.54-.59-.84-.86-1.18-1-2.85-1.38-3.83-2.8-.4-.58-1.4-.73-2.1-1.13-1-.59-2-1.25-3-1.86a1.06,1.06,0,0,0-.56-.16,3.91,3.91,0,0,1-3.49-1.71.55.55,0,0,0-.31-.17A50.56,50.56,0,0,0,101,44a43.57,43.57,0,0,0-5.51,0c-.62,0-1.29-.13-1.73.7-.16.3-1.11.31-1.68.26-1.41-.12-2.31.77-3.3,1.51a1.56,1.56,0,0,1-.82.39,4.33,4.33,0,0,0-3.32,1.73,4.62,4.62,0,0,1-2.06,1.27c-1.65.43-2.45,1.82-3.57,2.84q-1.33,1.21-2.64,2.44c-.13.12-.31.29-.31.44,0,1.23-1.28,1.51-1.79,2.34-.75,1.19-2.33,1.73-2.47,3.45,0,.58-.85,1.09-1.31,1.63-.16.18-.47.38-.45.55a4.35,4.35,0,0,1-1.8,3.82c-.11.09-.13.29-.18.44-.4,1.19-.71,2.41-1.21,3.56s-1.11,2-1.62,3-.84,1.89-1.29,2.82a4.73,4.73,0,0,1-.58.74,2.91,2.91,0,0,0-.38.54,16.8,16.8,0,0,0-.82,2c-.46,1.5-.84,3-1.28,4.53-.12.43-.37.81-.51,1.24a7.09,7.09,0,0,0-.43,1.58c-.08.91,0,1.85-.09,2.75a9.56,9.56,0,0,1-.6,1.68,3.82,3.82,0,0,0-.26,1.14c0,4.24,0,8.48,0,12.72a3.43,3.43,0,0,0,.52,1.22c.08.18.25.33.28.51a18.72,18.72,0,0,0,.86,4.17,17.58,17.58,0,0,0,2,4.35,2.39,2.39,0,0,1,.23,1c.1.67-.12,1.5.85,1.74,0,0,.06.06.07.09.36,1.12.75,2.23,1.06,3.37.17.63,0,1.23.73,1.81.53.41.76,1.44,1.27,2.17.88,1.26,1.36,2.79,2.22,4.06a18.1,18.1,0,0,1,2,3.19,16.46,16.46,0,0,0,2.86,4,33.85,33.85,0,0,0,2.58,2.39c.82.78,1.58,1.61,2.4,2.4a2.86,2.86,0,0,0,.74.46l3.53,1.72a1,1,0,0,0,.33.14c1.9.14,3.48,1.55,5.5,1.3a4.61,4.61,0,0,1,1.9.64,1.85,1.85,0,0,0,2.19-.31,18.85,18.85,0,0,0,2.83.5c4.24.07,8.48,0,12.72.11a5.2,5.2,0,0,1,1.5.6,4.15,4.15,0,0,0,1.12.32,20.38,20.38,0,0,1,3.23.16c6,1.44,12.12.55,18.18.83.88,0,1.37.2,1.3,1.2,0,.26.2.55.34.82s.56.74.62,1.14c.19,1.45-.11,1.65-1.52,1.85-1.68.24-3.33.66-5,1-.18,0-.36.27-.46.46a2.27,2.27,0,0,0-.18.69c-.33,1.94.17,2.68,2,3,.26,1.51.14,1.46-1.18,1.78a12.36,12.36,0,0,0-2.86,1.5c-.13.07-.19.26-.32.32-1,.44-2.11.82-3.14,1.29a7.24,7.24,0,0,0-1.19.92l-2.29,1.73a.79.79,0,0,1-.18.14,11.37,11.37,0,0,0-3.23,1.19c-1.25,1-2.63.82-4,1.12a6.72,6.72,0,0,0-2.78,1c-1.1.9-2.34.61-3.47,1a11.48,11.48,0,0,0-2.52,1.58,2.09,2.09,0,0,1-.66.23c-.6.13-1.14.24-1.16,1.07,0,.65-.07,1.08.77,1.29a9.32,9.32,0,0,1,2.11,1.24v1.47c-.62,0-1.21,0-1.8,0a4.84,4.84,0,0,0-4.32,1.72c-.1.13-.36.15-.55.19a3.57,3.57,0,0,0-2.39,1c-.55.62-1.76.74-2.71.9-1.18.19-2.4.13-3.58.3a5.9,5.9,0,0,0-1.52.67c-.1,0-.19.16-.29.18-2.07.36-4.14.72-6.22,1-.63.09-1.28,0-1.92.06s-1.43-.23-1.68.73a.23.23,0,0,1-.2.11c-1.55-.34-2.66.79-4,1.2-1.67.52-3.29,1.17-4.94,1.72a8.57,8.57,0,0,1-1.41.24c-.91.14-1.93-.14-2.64.78-.14.18-.6.13-.92.13-2.84,0-5.68,0-8.52,0a3.49,3.49,0,0,1-1.22-.5c-.14-.06-.24-.22-.38-.26-1.41-.38-2.85-.68-4.24-1.14a8.89,8.89,0,0,1-2.16-1.21c-.56-.39-1-1.11-1.55-1.32-1.11-.39-1.77-1.56-3.11-1.57-.47,0-1-.64-1.41-1q-2.16-1.88-4.28-3.79c-.67-.6-1.26-1.31-2-1.86s-1.39-.76-2.05-1.2c-1.12-.74-2.09-1.55-2-3.15,0-.38-.57-.84-.93-1.22-.84-.9-1.73-1.75-2.55-2.65a10.81,10.81,0,0,1-1.26-1.66c-.68-1.12-1.25-2.3-1.95-3.43-1-1.68-2.58-2.72-3.94-4a21.89,21.89,0,0,1-3-3.38,19.85,19.85,0,0,1-1.25-3c-.36-.76-.85-1.46-1.26-2.2a29.05,29.05,0,0,0-2-3.75c-.79-1-.26-2.37-1.51-3-.33-.18-.17-1.27-.26-1.93s.21-1.42-.72-1.7a.15.15,0,0,1-.08-.09c-.38-1.1-.85-2.19-1.13-3.32-.47-2-.59-4.07-1.32-5.93-.41-1-.38-2.25-.91-3.05-.72-1.08-.65-2.21-1-3.27-.16-.46-.93-.76-.75-1.5a1.69,1.69,0,0,1,.18-.66c1-1.27,1-1.92-.05-3.31-.15-.19-.11-.53-.15-.8-.16-1.13.23-2.32-.82-3.33-.38-.36-.09-1.39-.18-2.1s.19-1.39-.75-1.7c-.18-.06-.21-.72-.22-1.1,0-2.92,0-5.84-.11-8.76a10.22,10.22,0,0,0-.67-2.27,4.29,4.29,0,0,1-.16-.94A19.38,19.38,0,0,1,1,94.86c.27-2.78-1-5.36-1-8.08,0-6,0-11.92.08-17.88,1.17-2,.71-4.25,1.13-6.36.19-1,1.05-1.76,1.51-2.68A5.53,5.53,0,0,0,3,58.38c.15-.87-.37-2,.84-2.51.13-.06.11-.52.11-.8,0-1.2,0-2.4,0-3.6,0-.64-.22-1.4.69-1.68.07,0,.11-.2.15-.31.38-1.32.68-2.67,1.16-4A20.87,20.87,0,0,1,7.37,43a2.94,2.94,0,0,0,.49-1,4.54,4.54,0,0,1,1.83-3.11.71.71,0,0,0,.21-.52c-.14-1.62.79-2.7,1.77-3.82a7.72,7.72,0,0,0,1.12-2.2,10,10,0,0,1,1.95-2.46c.85-1,2.37-1.74,2.31-3.47,0-.37.59-.76.92-1.13a28.49,28.49,0,0,0,2.8-3.34c.72-1.16,2-1.93,2.29-3.43a6.74,6.74,0,0,1,1.6-2.31c.76-1,1.58-1.87,2.38-2.79a7.17,7.17,0,0,1,1-1,9.36,9.36,0,0,0,2.22-3c.39-.66,1.41-.93,2.09-1.45A21.25,21.25,0,0,0,34,6.39c.08-.08.12-.22.21-.26.88-.37,1.75-.75,2.65-1.07,1.19-.42,2.62-.51,3.53-1.25s2.06-.6,3.07-.9a12.48,12.48,0,0,0,2.62-1.5c.1-.06.16-.2.26-.23A21.87,21.87,0,0,1,51.1.08C58.57,0,66.05,0,73.53,0c.88,0,2-.3,2.49.89,0,0,.07,0,.11,0a8.15,8.15,0,0,1,3.67.94c.78.34,1.77-.19,2.47.88.26.4,1.51.11,2.3.25a5.73,5.73,0,0,1,1.29.55,3,3,0,0,0,.72.31A12.61,12.61,0,0,0,88.26,4a8.24,8.24,0,0,1,4.91,1.7,1.18,1.18,0,0,0,.68.17c1.43,0,2.33.88,3.27,1.74A1.31,1.31,0,0,0,98,8c1.4-.07,2.21.76,3.06,1.7.27.3,1,.22,1.44.35.84.24,1.67.51,2.5.77.07,0,.15.1.21.09,1.38-.31,2.17,1,3.31,1.34,1.34.45,2.43,1.66,3.63,2.53a.6.6,0,0,0,.32.13c1.26,0,1.72,1.1,2.49,1.77a5.82,5.82,0,0,0,1.53,1.13c1.53.61,2.4,1.89,3.47,3,.79.83,1.81,1.45,2.66,2.23a14.94,14.94,0,0,1,1.32,1.59c.11.14.23.37.36.39,1.77.16,2.61,1.64,3.82,2.62.66.53,1.48.88,2.14,1.41a18.22,18.22,0,0,1,1.58,1.59c.79.8,1.57,1.62,2.38,2.4s1.76,1.55,2.58,2.38,1.63,1.76,2.41,2.67c.63.72,1.21,1.48,1.82,2.21a19.89,19.89,0,0,1,1.39,1.67c.5.76,1.4,1.22,1.57,2.27a2.86,2.86,0,0,0,.9,1.45c1.1,1,1.31,2.73,2.79,3.56a3.08,3.08,0,0,1,1.12,2.12,4.88,4.88,0,0,0,1.83,2.91,4.66,4.66,0,0,1,1.06,2.08,6.51,6.51,0,0,0,2.06,3c.57.57.61,1.7,1.2,2.21,1,.86.67,2,1.05,3a26.52,26.52,0,0,0,1.65,2.83c.15.26.07.65.2.93.58,1.28,1.2,2.55,1.82,3.82,0,.1.2.21.18.28a4.85,4.85,0,0,0,1.15,3.8c.74,1.09.55,2.41,1.16,3.33a11.13,11.13,0,0,1,1.58,7.25c0,.41-.41.8-.51,1.22a9.57,9.57,0,0,0-.33,2.09c0,2.9,0,5.8,0,8.76l-2.08.24.69,1.46c-.15.43-.55,1-.5,1.53a2.77,2.77,0,0,1-1.17,2.63c-.36.27-1.18,0-1.77-.16-.43-.1-.84-.5-1.24-.47s-.62.48-.84.8c-.44.65-.83,1.34-1.22,2-1.59.07-1.68,0-1.74-1.5a4.18,4.18,0,0,0-.79-3c-.52-.61-.15-1.89-.44-2.78-.77-2.4-.63-4.86-.8-7.31,0-.44-.44-.85-.65-1.28a4.09,4.09,0,0,1-.35-.83c-.37-1.51-1.55-2.32-2.64-3.26s-3.11-1-3.47-2.92c-1.15-.37-.69-1.42-1-2.17a12.82,12.82,0,0,0-1.29-2.07c-.2-.31-.55-.64-.53-.94a3.56,3.56,0,0,0-1.63-3.08,1.35,1.35,0,0,1-.37-.84,4.45,4.45,0,0,0-1.85-3.29c-.18-.13-.15-.52-.27-.76a10.08,10.08,0,0,0-.62-1c-.08-.12-.28-.23-.27-.33.14-1.43-1-2-1.77-2.89-.5-.57-.27-1.55-1.17-2-.54-.3-.82-1.06-1.23-1.61S131,61.89,130.53,61.28Z"/><path d="M303.61,207.37l1.1,1.73c0,.06.1.14.1.2-.08,1.64,1.23,2.54,1.95,3.76a13,13,0,0,0,1.1,2.22c.8.89.71,2.31,1.87,2.93a.32.32,0,0,1,.11.2c.35,1.69.7,3.38,1,5.08.18.95-.22,1.94.8,2.81.45.38.2,1.67.16,2.55s.36,1.85-.71,2.45c-.18.1-.17.59-.21.91-.09.7.1,1.39-.8,1.9-.47.26-.41,1.2-1,1.83-.87,1-2.06,1.25-3,2a12.7,12.7,0,0,1-2.27,1.71,16.12,16.12,0,0,1-3.3,1.22c-1,.26-2.08-.06-3,.86-.49.47-1.69.15-2.56.27a5.85,5.85,0,0,0-1.19.51,4,4,0,0,1-1.07.35c-.83.08-1.68,0-2.51.13a4.84,4.84,0,0,0-1.2.53,2.73,2.73,0,0,1-.83.32c-.88.06-1.77,0-2.63.11a17.63,17.63,0,0,0-1.94.62,5.55,5.55,0,0,1-1.4.19l-46.43.08c-2.6,0-5.2,0-7.8,0-1.18,0-2.46.33-3.47-.73-.21-.22-.77-.11-1.16-.16a2.39,2.39,0,0,1-1.79-.64c-.4-.42-1.42-.27-2.17-.35s-1.47.17-1.85-.71c0-.1-.27-.14-.42-.19a8.92,8.92,0,0,0-2.83-.87c-1.94.07-3.54-.9-5.29-1.36-1.2-.31-2.26-1.16-3.46-1.49s-1.81-1.41-3.13-1.48c-.8,0-1.57-.8-2.32-1.28s-1.67-1.13-2.49-1.71a9.17,9.17,0,0,1-1.37-1c-1.12-1.15-2.16-2.39-3.29-3.53-.86-.87-1.86-1.59-2.69-2.47a12.07,12.07,0,0,1-1.37-2c-.57-.94-1.17-1.87-1.65-2.85s-.89-2.12-1.34-3.18c-.2-.47-.42-.93-.68-1.5.08-.07.44-.23.46-.42.12-1.46,1-2.7,1.23-4a15.29,15.29,0,0,1,1.07-4.31c.29-.58.95-1.35,1.47-1.37.81,0,1.64-.35,2.6.44,1.29,1.07.8,2.21.78,3.3a5.74,5.74,0,0,0,1.85,4.15c.79.86,1.44,1.87,2.27,2.69,1.17,1.16,2.57,2.1,3.64,3.33.78.89,1.72.88,2.67,1.16a2.48,2.48,0,0,1,1.47,1.09c.34.74,1,.5,1.41.8.88.66,2.08.63,2.85,1.62a3.84,3.84,0,0,0,2.31,1.16,24.63,24.63,0,0,0,4.43.19c.49,0,.94-.49,1.45-.66a5.57,5.57,0,0,1,1.7-.37c4.2,0,8.39,0,12.59,0,.89,0,2,.29,2.54-.86.07-.14.53-.16.79-.12,1.45.21,2.34-.62,3.12-1.65,0-.06,0-.19.1-.21,1.22-.4,2.5-1.21,3.67-1.08,2,.23,3.47-.68,5.35-1.68a5.4,5.4,0,0,0-1.2-.46c-.55,0-1.12.08-1.67,0s-1.15-.28-1.15-.4c0-.55-.39-1.33.55-1.58.11,0,.27-.09.3-.17q.57-1.53,1.11-3.07c.05-.15,0-.41.06-.46,1.61-1,.72-2.65.93-4,.14-.91-.14-1.87.72-2.65.28-.26.17-1.07.07-1.59-.18-.9-.64-1.75-.73-2.65-.13-1.31,0-2.64-.05-4a3.18,3.18,0,0,0-.8-2.6c-.49-.48-.43-1.6-1.15-2.23a9.79,9.79,0,0,1-1-1.44c-.89-1.16-1.8-2.3-2.68-3.46a1.08,1.08,0,0,1-.19-.56c-.08-1.14-1-1.59-1.72-2.25-.47-.44-.84-1-1.3-1.43-.9-.87-1.83-1.72-2.74-2.57a7.88,7.88,0,0,1-1.26-1.17,5.22,5.22,0,0,0-2.55-1.89,8.33,8.33,0,0,1-1.7-1.35c-.24-.19-.54-.45-.8-.44a4.16,4.16,0,0,1-3.36-1.8.56.56,0,0,0-.32-.15c-2.06-.33-3.94-1.48-6.14-1.24-1.43.15-3-.14-4.29.26-1.09.33-2.42.49-3.21,1.58a.56.56,0,0,1-.4.2c-1.23,0-1.83.94-2.55,1.69a1.1,1.1,0,0,1-.29.2c-1.46.75-3,1.4-4.38,2.26-2,1.25-4,2.6-5.92,4-.87.65-1.42,1.72-2.29,2.36s-1.17,1.53-2.31,1.64a2.78,2.78,0,0,0-1.59,1.06c-.82,1-2,1.22-3.05,1.83-.72.43-1.42.91-2.13,1.38-.12.08-.21.32-.32.32-1.56,0-2.78,1-4.22,1.33a12.44,12.44,0,0,0-1.36.67,4,4,0,0,1-1.34.29,8.39,8.39,0,0,0-4.85,1.75.59.59,0,0,1-.33.12c-2.55-.07-4.83,1.18-7.39,1.4-3.75.32-7.49.65-11.26.73a3,3,0,0,1-2.82-2,10.66,10.66,0,0,0-1.62-2c-.45-.54-.89-1.08-1.36-1.6a15.16,15.16,0,0,0-1.24-1.2,7.87,7.87,0,0,1-2.81-3.65,12.19,12.19,0,0,0-1.61-2.44,3.11,3.11,0,0,1-.28-1.1c-.12-.74.21-1.64-.81-2.06-.14-.06-.15-.51-.15-.77a58.88,58.88,0,0,1,.1-8.26,33.46,33.46,0,0,1,1.09-4.31c.17-.62.63-1.31.84-2,.07-.26.67-.48,1-.52a1,1,0,0,1,.76.48c.46.79.86,1.6,2.07,1.62a11.55,11.55,0,0,1,.11-1.87,11,11,0,0,1,.61-1.21,3.61,3.61,0,0,0,.32-1.44,7.12,7.12,0,0,1,1.73-4.75,2.66,2.66,0,0,0,.33-1.13c.23-1.67.75-2.25,2.39-2.6.08,0,.19,0,.23,0a39,39,0,0,0,3.36-3.58c.81-1.09,1.34-1.51,2.87-1.23,0,.77.4,1.64-.6,2.19a.45.45,0,0,0-.17.31,11,11,0,0,1-1,3.08,29.62,29.62,0,0,0-1.23,5.23,3.69,3.69,0,0,1-.6,1c-.06.09-.21.15-.24.25a33.58,33.58,0,0,0-1.08,4.31c-.19,1.5,0,3-.09,4.55a6.44,6.44,0,0,0,1.92,4.93c.7.81,1.26,1.74,2,2.49A17.69,17.69,0,0,0,161,182c.66.47,1.3,1,1.94,1.44.12.09.18.3.31.34,1.28.37,2.55.79,3.85,1a1.7,1.7,0,0,0,2-.64c.1-.17.51-.16.78-.21.52-.09,1.17.08,1.3-.74,0-.1.33-.21.5-.22,1.15,0,1.62-1,2.32-1.65.88-.81,1.77-1.6,2.62-2.43.51-.49,1-1,1.42-1.58a8.34,8.34,0,0,1,1.17-1.32,11.67,11.67,0,0,0,2.86-2.94,19.54,19.54,0,0,1,3-3.82c1.19-1,1.32-2.79,2.8-3.64.42-.24.54-1.29.93-2,.68-1.17.61-2.77,1.28-3.94s.44-2.59,1-3.48c1.16-1.72,1.46-3.59,2.08-5.45,1.11-3.31.54-6.59.59-9.87.14-8.56.05-17.12.07-25.68,0-1.16,0-2.32.14-3.47a2.38,2.38,0,0,1,.51-.91c.08-.12.32-.23.31-.32-.37-2.05,1.71-3.61,1.13-5.75-.18-.68-.42-1.62.73-2.11.29-.13.14-1.25.23-1.91s-.45-1.72.77-2.08c.12,0,.14-.5.16-.78a11.18,11.18,0,0,1,.15-2.27,37.09,37.09,0,0,1,1.37-3.6c.15-.37.4-.71.58-1.07a12.21,12.21,0,0,1,.66-1.43,3.41,3.41,0,0,0-.26-3.55c-.08-.08-.25-.16-.25-.23,0-1.58-1.56-2.74-1.13-4.45.21-.84,0-1.47-1.11-1.5a1.06,1.06,0,0,1-.79-.65,2.29,2.29,0,0,1,.36-1.12c.06-.12.32-.16.36-.28.43-1.22.78-2.48,1.26-3.68s1-2.27,1.57-3.41c.15-.32.24-.67.41-1a4.89,4.89,0,0,1,.53-.75c.11-.14.37-.24.37-.37,0-1.33,1.12-2,1.77-2.91.45-.64.43-1.5,1.16-2.15,1.16-1,1.49-2.78,3-3.64a2,2,0,0,0,.92-1.3,5.53,5.53,0,0,1,1.07-2.41,26.37,26.37,0,0,0,1.93-3.44c.36-.77.41-1.69,1.27-2.19a2.26,2.26,0,0,0,.86-.78,8.81,8.81,0,0,1,2.07-3.13c1.09-.84,1.23-2.33,2.09-3.32a9.28,9.28,0,0,0,2.14-3.11c.29-.86,1.28-1.47,1.94-2.21s1.27-1.52,1.94-2.24c.9-1,1.86-1.85,2.76-2.81s1.57-1.79,2.37-2.67a.64.64,0,0,1,.41-.2c1,0,1.4-.52,1.56-1.53.06-.35,1-.56,1.66-.9,0-1.91,2-2.48,3.16-3.65,1-.94,2.07-1.74,3.1-2.6.06,0,.08-.16.14-.19.92-.43,1.85-.86,2.78-1.27l3.9-1.71s.05-.07.08-.08c1.35-.4,2.69-.85,4.06-1.18.73-.18,1.6.13,2.09-.78.09-.17.59-.17.9-.19,1-.05,2.09,0,3.11-.13.64-.09,1.23-.54,1.87-.69s1.41-.13,2.11-.23,1.66.33,2-.79c0,0,.13-.09.21-.1a11.46,11.46,0,0,0,4-1.88c.28-.17.72-.05,1.05-.17.56-.2,1.08-.5,1.64-.71a3.3,3.3,0,0,1,1.13-.3c3.8,0,7.6,0,11.4,0a3.7,3.7,0,0,1,1.31.58c.21.1.4.24.61.32a31.43,31.43,0,0,1,3.08,1.25c1.18.63,1.4,1.25,1.19,2.74-1-.27-2.18.48-3.07-.82-.23-.33-1.21-.14-1.84-.23s-1.6.31-2.07-.74c-.1-.22-.89-.15-1.36-.18A7.73,7.73,0,0,0,278,14a4.69,4.69,0,0,0-1,.37,9.32,9.32,0,0,0,.69.72c1.46,1.23,3.44,1.22,5,2,1.09.57,2.53.58,3.32,1.74a.71.71,0,0,0,.51.21c1.21,0,1.93.86,2.7,1.61.06.05.1.14.16.17a17.84,17.84,0,0,0,3,1.15,7.91,7.91,0,0,1,3.55,1.86c.92.78,2,1.44,2.8,2.29,1.17,1.19,2.22,2.48,3.28,3.78a5.66,5.66,0,0,1,1,1.72,1.92,1.92,0,0,1-.16,1.24,5.69,5.69,0,0,1-1.73-.19c-.19,0-.32-.32-.49-.49a2.36,2.36,0,0,0-.06,3.1,6.36,6.36,0,0,1,.43,2.06,7.89,7.89,0,0,0,.74,3.07c.64,1.08.23,2.79.26,4.22,0,.11-.17.26-.3.32-.71.33-.65.55,0,1,.89.67,1.94,1.61,1.28,2.76-.79,1.38-.68,3-1.72,4.34a12.44,12.44,0,0,0-1.26,3.06,7.83,7.83,0,0,1-.55.86c-.14.25-.24.53-.38.77s-.45.73-.69,1.08c-.06.09-.25.17-.24.23.22,1.1-.53,1.81-1.06,2.6s-1.09,1.5-1.62,2.26-1,1.47-1.47,2.21c-.06.09,0,.27-.07.34q-1.73,1.74-3.49,3.45a7.85,7.85,0,0,1-1.5,1.29,4.12,4.12,0,0,1-1.65.39c-.26,0-.61-.39-.82-.32a25.73,25.73,0,0,0-2.5,1.09c-.26.13-.47.45-.73.49-1.1.17-1.61.95-2.33,1.69-.91.94-.91,2.39-1.93,3.1-1.49,1-2,2.77-3.09,4-.78.87-1.7,1.61-2.49,2.47-.54.59-.91,1.33-1.44,1.93-.86,1-1.8,1.87-2.7,2.81-.08.08-.18.18-.19.27,0,1.33-.89,2.06-1.82,2.88a24.81,24.81,0,0,0-2.3,3c-.81,1-1.71,1.9-2.58,2.84s-1.6,1.7-2.43,2.53S258,102.1,257.15,103c-.47.48-.83,1.06-1.27,1.56a7.17,7.17,0,0,1-1.16,1.08c-.67.48-1.4.88-2.1,1.32A5.62,5.62,0,0,0,251.1,108c-.8,1-2,1.37-3,2a34.59,34.59,0,0,1-3.55,2.56,6.9,6.9,0,0,0-2.22,1.36,5.24,5.24,0,0,1-2,1.38,9.18,9.18,0,0,1-2.12.67c.11-1.24-.61-2.34.59-3.39.74-.65.89-1.93,1.37-2.9.29-.59.75-1.09,1-1.69s.53-1.52.88-2.23a16.28,16.28,0,0,1,1.2-1.88c.58-.84,1.15-1.68,1.77-2.5a4.66,4.66,0,0,1,1.17-1.25,5.11,5.11,0,0,0,2-2.61,8.13,8.13,0,0,1,1.45-1.76c.05-.06.15-.1.17-.16.4-1.14.79-2.28,1.17-3.43.09-.26,0-.72.19-.78,1.14-.51.71-1.52.87-2.36.08-.43.41-.82.5-1.25a11.15,11.15,0,0,0,.48-3c-.09-1.27.68-1.89,1.39-2.64a6.49,6.49,0,0,0,.6-.86c-.34-.11-.68-.25-1-.33a8.22,8.22,0,0,0-1.06-.07c.25-.81.52-1.49.68-2.19.47-2.05.89-4.12,1.34-6.17-1-.64-.87-1.86-1.66-2.73-1.37-1.51-3.25-2.19-4.68-3.52-.59-.55-2.83-.39-3.46.06-.41.29-.93.43-1.37.69-1,.58-2.32.51-3,1.67a.36.36,0,0,1-.16.16c-1,.39-2,.72-3,1.16A4.56,4.56,0,0,0,236,71.08c-.76.92-1.45,1.8-2.79,1.93-.4,0-.78.59-1.12.94-1.48,1.54-2.91,3.14-4.43,4.64S224.51,81.45,223,83c-1.15,1.16-2.15,2.47-3.22,3.72-.05.06-.12.15-.17.15-.87,0-1.51.72-2.16.92-2.21.69-3.42,2.35-4.73,4a30.11,30.11,0,0,1-2,2.71c-.67.65-.69,1.9-1,2.06-1.12.58-.4,2.19-1.66,2.5-.09,0-.16.26-.17.4a2.42,2.42,0,0,1-.73,1.69,7.72,7.72,0,0,0-1.4,3.08,39.7,39.7,0,0,1-1.09,4.39c-.37.86-.91,1.7-.59,2.53,1.35,3.53.46,7.17.63,10.74.06,1.34-.52,2.69-.59,4-.12,2.51-.08,5-.11,7.55-.06,5.44-.12,10.87-.22,16.31,0,.39-.36.78-.57,1.16-.07.13-.32.24-.3.32.36,1.73-1.09,3.11-1,4.72.11,1.37-1,2-1.39,3a7.9,7.9,0,0,1-1.73,2.28c-1.11,1.16-1.3,2.9-2.72,3.95-.44.33-.7,1.49-1.3,2.12l-3.54,3.77a1,1,0,0,0-.31.46c-.14,1.18-1,1.85-1.72,2.67a9.46,9.46,0,0,0-1.13,2.17.38.38,0,0,0,.57.43c.76-.82,1.5-1.68,2.25-2.51.23-.25.54-.44.75-.7,1.3-1.61,2.53-3.26,4-4.77.88-.9,2.17-1.81,2.37-3.38.05-.41.64-.74.94-1.14,1.28-1.68,2.5-3.43,3.87-5,.31-.36,1.15-.26,1.71-.37a2.1,2.1,0,0,0,3.36.54c.11-.14.27-.38.39-.37,1.42.12,2.13-.9,2.92-1.79a.89.89,0,0,1,.55-.19c1.08-.1,1.55-1,2.22-1.64a6.08,6.08,0,0,1,.75-.47c.8-.57,1.58-1.17,2.39-1.71s1.46-.77,2.1-1.26c2.12-1.65,4.55-.83,6.86-.93a2.32,2.32,0,0,1,.84.28,10.28,10.28,0,0,0,1.61.63c.85.17,1.86-.19,2.43.87.09.16.59.12.91.13,1,0,2.08,0,3.12.07.74,0,1.65-.32,2,.73,0,.09.29.09.44.13a31.26,31.26,0,0,1,4,1.11,12.53,12.53,0,0,1,2.43,1.75,1.13,1.13,0,0,0,.27.2c1.05.35,2.49.38,3.08,1.1,1.12,1.37,3,.3,4,1.66.14.2.59.2.91.24.68.08,1.48-.13,1.78.8a.23.23,0,0,0,.2.1c1.34-.35,2.2.78,3,1.33,1.24.82,3,1,3.73,2.57a.34.34,0,0,0,.16.15c1,.39,1.93.74,2.86,1.17a4.49,4.49,0,0,1,1.62,1c1.39,1.7,3.28,2.74,5,4a27.37,27.37,0,0,1,2.4,2.67c.82.83,1.8,1.49,2.57,2.35.57.64.85,1.52,1.39,2.2a4.28,4.28,0,0,1,1,2.24c.05.4.64.74,1,1.08.87.81,1.8,1.55,2.62,2.4s1.48,1.79,2.26,2.65,1.43,1.49,2.16,2.21c1.19,1.18,2.38,2.35,3.6,3.5.62.58,1.32,1.08,2,1.65.42.37.81.79,1.2,1.19l2.64,2.81A18.24,18.24,0,0,0,298,200.8c1.56,1.09,2.18,2.92,3.59,4.12a13.91,13.91,0,0,1,1.38,1.84c.17.21.52.27.79.41Zm-118-28.52c-1.07,0-1.76.75-1.64,1.57,0,.22.34.41.52.61.55-.54,1.1-1.07,1.61-1.64A5.78,5.78,0,0,0,185.57,178.85Zm-4.16,4.4,1.62-1.78c-.18-.16-.49-.49-.53-.46a17.36,17.36,0,0,0-1.64,1.45A5.7,5.7,0,0,0,181.41,183.25Z"/><path d="M33.11,297.82a3.25,3.25,0,0,0-2.29-3,1.73,1.73,0,0,1-.8-1.23c-.2-1.67-.15-1.68-1.94-1.85L28,290.39c1.33-1,2.56-1.9,3.67-2.89a1.68,1.68,0,0,0,.21-1.33c0-.16-.67-.21-1-.29a7.11,7.11,0,0,0-.81-.06c0-.77-.33-1.3.66-2s2.39-.7,2.91-1.83,1.7-.81,2.58-1.15c.63-.24,1.46-.56,1.69-1.08.37-.82.94-.68,1.53-.77s1.43.26,1.63-.74c0,0,.06-.06.09-.07,1.11-.37,2.21-.8,3.34-1.07s2.15.23,2.94-.82c.14-.19.62-.1.91-.21.64-.23,1.25-.56,1.9-.73s1.49-.2,2.23-.35c1.71-.36,3.43-.68,5.09-1.2.58-.18,1-.87,1.51-1.32.11-.1.23-.31.34-.3A6.27,6.27,0,0,0,62.8,271c1.11-.58,2.2-1.22,3.33-1.77s2-.84,3-1.35,1.83-1.11,2.74-1.67c.69-.42,1.39-.82,2.07-1.25a19.41,19.41,0,0,0,1.89-1.27c.53-.43.89-1.14,1.48-1.42a6.68,6.68,0,0,0,2.79-2.15c.08-.12.37-.11.56-.14,1.19-.18,1.48-.91,1.21-2.1H77.13l-2.28,0c-2.27,0-3-.79-2.86-3a3.15,3.15,0,0,1,2.23-3A14.19,14.19,0,0,0,77,249.8a10.49,10.49,0,0,0,1.1-1.18,3.67,3.67,0,0,0,1-2.22c.05-.52,1-1.06,1.65-1.36.46-.22,1.11,0,1.66-.11a19.73,19.73,0,0,0,2-.63c.11,0,.22-.09.34-.12l4.2-1c-.18-2,1.36-2.28,2.17-3.21,1.16-1.34,3-.53,4.17-1.76.22-.24.84-.09,1.28-.15.62-.08,1.41.21,1.67-.75,0-.15.5-.15.74-.27.4-.21.78-.46,1.16-.7.07,0,.11-.13.18-.15,1.55-.36,3.08-.81,4.64-1,1.26-.18,2.55,0,3.83-.11.43,0,.83-.41,1.25-.63a1.77,1.77,0,0,1,.61-.28,6.64,6.64,0,0,0,4.66-2.78.64.64,0,0,1,.4-.23c1.24,0,1.76-1,2.44-1.77.29-.34,1-.31,1.33-.64.74-.87,1.47-1.75,2.24-2.6,1.12-1.24,2.25-2.46,3.39-3.68.74-.8,1.51-1.56,2.24-2.37a9,9,0,0,0,.66-1c.23-.33.6-.64.67-1a9,9,0,0,0,.18-2.49c0-.25-.69-.61-1.07-.63a20.56,20.56,0,0,0-4.66,0,25,25,0,0,0-4.32,1.64c-.15.06-.29.14-.44.18-1.36.39-3,.42-4,1.23-1.25,1-2.57.65-3.81,1a7.68,7.68,0,0,0-1.71,1.18c-.36.24-.78.62-1.14.58-1.55-.15-2.36,1.19-3.6,1.65-.16.06-.28.41-.39.4a4.06,4.06,0,0,0-2.52.95c-1.07.67-2.19,1.27-3.3,1.89a2.38,2.38,0,0,1-.67.18c-.55.11-1.26-.06-1.38.8,0,.05-.11.11-.18.13-1.09.38-2.21.68-3.26,1.15A25.26,25.26,0,0,0,90,229.38c-.35.2-.73.33-1.08.53s-.68.45-1,.68c-.06,0-.07.16-.12.19-.93.39-1.89.74-2.8,1.17-.73.34-1.42.77-2.12,1.18-.41.24-.79.55-1.22.76-1.53.74-3.27,1.22-4.53,2.27a5.06,5.06,0,0,1-1.81.81,16.2,16.2,0,0,0-2.41,1.37c-.21.13-.38.46-.57.46a4.67,4.67,0,0,0-3.65,1.87c-.31.35-1.13.26-1.71.38s-1.05-.12-1.15-.83a1.18,1.18,0,0,0-.85,0,4.37,4.37,0,0,1-5.08-.11,3,3,0,0,0-.83-.36c-.27-1.66-.42-1.7-2-2a6.22,6.22,0,0,1-2-1c-.08,0-.07-.44,0-.53.49-.44,1-.81,1.53-1.24a.87.87,0,0,0,.33-.56c-.06-1.23.7-1.45,1.68-1.45.76,0,1-.6,1.47-1.07,1.27-1.3.9-2.78,1-4.27,0-.36.42-.79.75-1.05a17,17,0,0,1,2.41-1.77c1.31-.71,3-.87,3.88-2.38a.62.62,0,0,1,.46-.29c1.63.15,2.66-.89,3.76-1.83a.63.63,0,0,1,.44-.16c1.47.26,2.57-.77,3.65-1.36,1.39-.76,2.89-1.12,4.27-1.8.9-.44,1.66-1.18,2.54-1.67s2.31-.7,3-1.46c.84-.94,2.35-.35,2.87-1.61a.24.24,0,0,1,.19-.13c1.53.3,2.67-.88,4.07-1.06.68-.09,1.47.15,1.85-.74,0-.12.35-.14.55-.17a11.88,11.88,0,0,0,3.8-.94c1.56-.81,3.53-.81,5.3-1.22a5.39,5.39,0,0,0,1.29-.7c.1-.06.2-.19.29-.18,1.46.19,2.67-.55,3.92-1.08a26,26,0,0,0,2.4-1.1c.13-.07.06-.84,0-.85-1.3-.27-.72-1.17-.72-1.65,3.36-2.12,7-1.23,10.52-1.55a8.26,8.26,0,0,0,1.57-.55,4,4,0,0,1,1.14-.24c6.16,0,12.32,0,18.48,0a5.33,5.33,0,0,1,1.47.54,3.56,3.56,0,0,0,1,.25c2,.05,4,.13,6,.09a3.94,3.94,0,0,1,2.32.84,5.27,5.27,0,0,1,1.49,1.8c1.54,2.11.66,4.37.88,6.54.07.7.17,1.56-.77,1.94-.08,0-.11.2-.15.31a17.6,17.6,0,0,1-1.18,3.13,18.78,18.78,0,0,1-2.21,2.49c-.6.67-1.16,1.38-1.75,2.06s-1,1.16-1.54,1.73a15.42,15.42,0,0,1-1.39,1.52c-1.19,1-1.38,2.7-2.74,3.7s-2.07,2.47-3.17,3.65-2.37,2.24-3.49,3.42c-.64.67-1.13,1.48-1.7,2.22a18.54,18.54,0,0,1-1.19,1.43,16,16,0,0,1-2.87,2.83c-1.2.74-1.73,2.3-3.36,2.49-.52.06-1.05.64-1.45,1.1a4,4,0,0,1-2.69,1.82c-.42,0-.82.63-1.17,1a18.51,18.51,0,0,1-1.27,1.59c-.94.84-2,1.57-3,2.37-.66.54-1.29,1.13-1.92,1.7-.4.36-.76.93-1.21,1-.94.21-1.16,1.59-2.4,1.31-.32-.07-.84.57-1.21.95-.8.82-1.51,1.72-2.35,2.5-.64.6-1.45,1-2.11,1.59a23.71,23.71,0,0,1-2.73,2.55c-1.65,1-2.42,3.15-4.61,3.52-.52.09-.92.91-1.38,1.39-.1.11-.16.29-.28.33-1,.38-2,.68-2.95,1.12A3.39,3.39,0,0,0,95,270.17c-.34.74-.88.61-1.4.82a4.5,4.5,0,0,0-1.38,1c-.85.82-1.62,1.73-2.47,2.54-.52.5-1.17.86-1.73,1.32-1.09.91-2.16,1.85-3.24,2.77a9,9,0,0,1-1.34,1.1c-.83.46-1.74.77-2.57,1.23a8.62,8.62,0,0,0-1.69,1.2c-.87.8-1.68,1.68-2.52,2.52a1.08,1.08,0,0,1-.31.17c-1.44.69-2.92,1.31-4.3,2.1-.82.47-1.43,1.3-2.22,1.83s-1.72.61-2.32,1.18c-1.11,1.08-3,1-3.68,2.7,0,.06-.13.14-.18.13-1.22-.25-2,.77-3,1.1a3.52,3.52,0,0,0-.87.6,2,2,0,0,1-.45.33c-1.21.4-2.44.75-3.63,1.18a19.76,19.76,0,0,1-2,.9c-.74.18-1.56,0-2,.86-.1.18-.67.1-1,.13-.77.07-1.62-.14-2.14.72a.59.59,0,0,1-.55.15c-1-.42-2-.87-3-1.33-.15-.07-.23-.41-.35-.41-2.15,0-4.31,0-6.46,0-1.2,1.5-2.87.62-4.32.84A3.73,3.73,0,0,1,33.11,297.82Z"/><path class="cls-1" d="M185.57,178.85a5.78,5.78,0,0,1,.49.54c-.51.57-1.07,1.1-1.61,1.64-.18-.2-.49-.39-.52-.61C183.81,179.6,184.49,178.88,185.57,178.85Z"/><path class="cls-1" d="M181.41,183.25a5.7,5.7,0,0,1-.55-.79A17.36,17.36,0,0,1,182.5,181s.34.3.53.46Z"/></g></g></svg>